<svg width="214" height="117" viewBox="0 0 214 117" fill="none" xmlns="http://www.w3.org/2000/svg">
<path d="M52.8657 58.2104H46.0962V33.9728C46.0962 33.4994 46.0015 33.0576 45.8122 32.6473C45.6386 32.2371 45.394 31.882 45.0784 31.5822C44.7786 31.2666 44.4236 31.022 44.0133 30.8484C43.603 30.6749 43.1612 30.5881 42.6878 30.5881C42.2144 30.5881 41.7726 30.6749 41.3623 30.8484C40.952 31.022 40.5891 31.2666 40.2735 31.5822C39.9737 31.882 39.737 32.2371 39.5634 32.6473C39.3898 33.0576 39.3031 33.4994 39.3031 33.9728V58.2104H32.5099V33.9728C32.5099 33.4994 32.4231 33.0576 32.2495 32.6473C32.076 32.2371 31.8314 31.882 31.5158 31.5822C31.216 31.2666 30.8609 31.022 30.4507 30.8484C30.0404 30.6749 29.5986 30.5881 29.1252 30.5881C28.6518 30.5881 28.2099 30.6749 27.7997 30.8484C27.3894 31.022 27.0265 31.2666 26.7109 31.5822C26.4111 31.882 26.1744 32.2371 26.0008 32.6473C25.8272 33.0576 25.7404 33.4994 25.7404 33.9728V58.2104H18.9473V33.9728C18.9473 32.5684 19.2076 31.2508 19.7284 30.02C20.2649 28.7734 20.9907 27.6925 21.906 26.7773C22.837 25.8463 23.9179 25.1204 25.1487 24.5997C26.3953 24.0632 27.7208 23.7949 29.1252 23.7949C30.3875 23.7949 31.6026 24.0237 32.7703 24.4813C33.938 24.9232 34.9873 25.5701 35.9183 26.4222C36.8493 25.5701 37.8908 24.9232 39.0427 24.4813C40.2104 24.0237 41.4254 23.7949 42.6878 23.7949C44.0922 23.7949 45.4098 24.0632 46.6406 24.5997C47.8872 25.1204 48.9681 25.8463 49.8833 26.7773C50.8143 27.6925 51.5402 28.7734 52.0609 30.02C52.5974 31.2508 52.8657 32.5684 52.8657 33.9728V58.2104Z" fill="#E02041"/>
<path d="M73.9789 58.2104H67.2094V47.5828C65.7104 47.2041 64.3296 46.5966 63.0673 45.7602C61.8207 44.9239 60.7476 43.9298 59.8482 42.7779C58.9488 41.6102 58.2466 40.3241 57.7416 38.9197C57.2524 37.4996 57.0079 36.0084 57.0079 34.4462V24.2683H63.801V34.4462C63.801 35.3772 63.9746 36.2609 64.3217 37.0972C64.6847 37.9177 65.1738 38.6357 65.7892 39.2511C66.4047 39.8665 67.1226 40.3557 67.9432 40.7186C68.7795 41.0658 69.6632 41.2394 70.5942 41.2394C71.5252 41.2394 72.4009 41.0658 73.2215 40.7186C74.0578 40.3557 74.7837 39.8665 75.3991 39.2511C76.0145 38.6357 76.4958 37.9177 76.8429 37.0972C77.2058 36.2609 77.3873 35.3772 77.3873 34.4462V24.2683H84.1568V34.4462C84.1568 36.0084 83.9043 37.4996 83.3994 38.9197C82.9102 40.3241 82.2159 41.6102 81.3165 42.7779C80.417 43.9298 79.344 44.9239 78.0974 45.7602C76.8508 46.5966 75.478 47.2041 73.9789 47.5828V58.2104Z" fill="#E02041"/>
<path d="M171.309 28.149L139.497 9.80418M124.545 19.5245L155.403 37.3744L186.26 19.5245M155.403 72.9684V37.3392M187.214 51.4778V23.2006C187.213 21.9609 186.886 20.7434 186.266 19.6701C185.645 18.5968 184.753 17.7055 183.68 17.0857L158.937 2.94711C157.863 2.32665 156.644 2 155.403 2C154.162 2 152.943 2.32665 151.868 2.94711L127.125 17.0857C126.052 17.7055 125.16 18.5968 124.54 19.6701C123.919 20.7434 123.592 21.9609 123.591 23.2006V51.4778C123.592 52.7175 123.919 53.9351 124.54 55.0084C125.16 56.0816 126.052 56.9729 127.125 57.5928L151.868 71.7314C152.943 72.3518 154.162 72.6785 155.403 72.6785C156.644 72.6785 157.863 72.3518 158.937 71.7314L183.68 57.5928C184.753 56.9729 185.645 56.0816 186.266 55.0084C186.886 53.9351 187.213 52.7175 187.214 51.4778Z" stroke="black" stroke-width="4" stroke-linecap="round" stroke-linejoin="round"/>
<path d="M7.12616 88.9624V102.549H13.9193C14.8503 102.549 15.7261 102.375 16.5466 102.028C17.3672 101.665 18.0851 101.176 18.7006 100.56C19.316 99.9451 19.7972 99.2271 20.1444 98.4065C20.5073 97.5702 20.6888 96.6866 20.6888 95.7556C20.6888 94.8246 20.5073 93.9488 20.1444 93.1282C19.7972 92.2919 19.316 91.566 18.7006 90.9506C18.0851 90.3352 17.3672 89.854 16.5466 89.5068C15.7261 89.1439 14.8503 88.9624 13.9193 88.9624H7.12616ZM7.12616 116.111H0.333008V82.1693H13.9193C15.1659 82.1693 16.3652 82.3349 17.5171 82.6663C18.669 82.9819 19.742 83.4395 20.7361 84.0391C21.746 84.623 22.6612 85.3331 23.4818 86.1694C24.3181 86.9899 25.0282 87.9052 25.612 88.9151C26.2117 89.925 26.6693 91.0059 26.9849 92.1578C27.3163 93.3097 27.4819 94.509 27.4819 95.7556C27.4819 97.6176 27.1269 99.377 26.4168 101.034C25.7067 102.675 24.7363 104.111 23.5055 105.342C22.2746 106.573 20.8308 107.543 19.1739 108.253C17.5329 108.963 15.7813 109.318 13.9193 109.318H7.12616V116.111Z" fill="#13131A"/>
<path d="M51.4592 102.549V95.7556C51.4592 94.8246 51.2777 93.9488 50.9148 93.1282C50.5676 92.2919 50.0863 91.566 49.4709 90.9506C48.8555 90.3352 48.1296 89.854 47.2933 89.5068C46.4728 89.1439 45.597 88.9624 44.666 88.9624C43.735 88.9624 42.8513 89.1439 42.015 89.5068C41.1945 89.854 40.4765 90.3352 39.8611 90.9506C39.2457 91.566 38.7565 92.2919 38.3936 93.1282C38.0464 93.9488 37.8729 94.8246 37.8729 95.7556V102.549H51.4592ZM58.2523 116.111H51.4592V109.318H37.8729V116.111H31.1034V95.7556C31.1034 93.8778 31.4584 92.1183 32.1685 90.4773C32.8786 88.8204 33.8411 87.3765 35.0562 86.1457C36.287 84.9149 37.7229 83.9445 39.364 83.2344C41.0209 82.5243 42.7882 82.1693 44.666 82.1693C46.5438 82.1693 48.3032 82.5243 49.9443 83.2344C51.6012 83.9445 53.045 84.9149 54.2758 86.1457C55.5066 87.3765 56.4771 88.8204 57.1872 90.4773C57.8973 92.1183 58.2523 93.8778 58.2523 95.7556V116.111Z" fill="#13131A"/>
<path d="M91.2476 112.632C89.6696 113.989 87.9023 115.03 85.9456 115.756C83.989 116.482 81.9613 116.845 79.8626 116.845C78.253 116.845 76.6987 116.632 75.1997 116.206C73.7164 115.796 72.3199 115.212 71.0102 114.454C69.7162 113.681 68.5328 112.758 67.4597 111.685C66.3867 110.612 65.4636 109.429 64.6904 108.135C63.933 106.825 63.3413 105.428 62.9152 103.945C62.5049 102.446 62.2998 100.892 62.2998 99.2823C62.2998 97.6728 62.5049 96.1185 62.9152 94.6194C63.3413 93.1203 63.933 91.7238 64.6904 90.4299C65.4636 89.1202 66.3867 87.9288 67.4597 86.8558C68.5328 85.7828 69.7162 84.8676 71.0102 84.1102C72.3199 83.3369 73.7164 82.7452 75.1997 82.3349C76.6987 81.9089 78.253 81.6959 79.8626 81.6959C81.9613 81.6959 83.989 82.0588 85.9456 82.7847C87.9023 83.4947 89.6696 84.5362 91.2476 85.909L87.6498 91.8264C86.6557 90.7534 85.4801 89.9329 84.1231 89.3648C82.766 88.7809 81.3459 88.489 79.8626 88.489C78.3635 88.489 76.9591 88.773 75.6494 89.3411C74.3397 89.9092 73.1957 90.6824 72.2173 91.6607C71.239 92.6233 70.4658 93.7673 69.8977 95.0928C69.3296 96.4025 69.0456 97.799 69.0456 99.2823C69.0456 100.766 69.3296 102.162 69.8977 103.472C70.4658 104.766 71.239 105.902 72.2173 106.88C73.1957 107.859 74.3397 108.632 75.6494 109.2C76.9591 109.768 78.3635 110.052 79.8626 110.052C81.3459 110.052 82.766 109.768 84.1231 109.2C85.4801 108.616 86.6557 107.788 87.6498 106.715L91.2476 112.632Z" fill="#13131A"/>
<path d="M101.994 116.111H95.2004V82.1693H101.994V99.1403L114.633 82.1693H122.349L111.627 96.4893L122.349 116.111H114.633L107.177 102.383L101.994 109.318V116.111Z" fill="#13131A"/>
<path d="M145.474 102.549V95.7556C145.474 94.8246 145.293 93.9488 144.93 93.1282C144.583 92.2919 144.102 91.566 143.486 90.9506C142.871 90.3352 142.145 89.854 141.309 89.5068C140.488 89.1439 139.612 88.9624 138.681 88.9624C137.75 88.9624 136.867 89.1439 136.03 89.5068C135.21 89.854 134.492 90.3352 133.876 90.9506C133.261 91.566 132.772 92.2919 132.409 93.1282C132.062 93.9488 131.888 94.8246 131.888 95.7556V102.549H145.474ZM152.268 116.111H145.474V109.318H131.888V116.111H125.119V95.7556C125.119 93.8778 125.474 92.1183 126.184 90.4773C126.894 88.8204 127.856 87.3765 129.071 86.1457C130.302 84.9149 131.738 83.9445 133.379 83.2344C135.036 82.5243 136.804 82.1693 138.681 82.1693C140.559 82.1693 142.319 82.5243 143.96 83.2344C145.616 83.9445 147.06 84.9149 148.291 86.1457C149.522 87.3765 150.492 88.8204 151.202 90.4773C151.913 92.1183 152.268 93.8778 152.268 95.7556V116.111Z" fill="#13131A"/>
<path d="M185.168 112.679C183.59 114.021 181.831 115.054 179.89 115.78C177.949 116.49 175.929 116.845 173.831 116.845C172.221 116.845 170.667 116.632 169.168 116.206C167.684 115.796 166.296 115.212 165.002 114.454C163.708 113.681 162.524 112.766 161.451 111.709C160.378 110.636 159.463 109.452 158.706 108.158C157.948 106.849 157.357 105.444 156.931 103.945C156.52 102.446 156.315 100.892 156.315 99.2823C156.315 97.6728 156.52 96.1264 156.931 94.6431C157.357 93.1598 157.948 91.7712 158.706 90.4773C159.463 89.1675 160.378 87.9841 161.451 86.9268C162.524 85.8538 163.708 84.9386 165.002 84.1812C166.296 83.4237 167.684 82.8399 169.168 82.4296C170.667 82.0036 172.221 81.7905 173.831 81.7905C175.929 81.7905 177.949 82.1535 179.89 82.8793C181.831 83.5894 183.59 84.6151 185.168 85.9564L181.618 91.8738C180.592 90.8323 179.409 90.0196 178.067 89.4358C176.726 88.8362 175.314 88.5364 173.831 88.5364C172.347 88.5364 170.951 88.8204 169.641 89.3885C168.347 89.9565 167.211 90.7297 166.233 91.7081C165.254 92.6706 164.481 93.8068 163.913 95.1165C163.345 96.4104 163.061 97.799 163.061 99.2823C163.061 100.781 163.345 102.186 163.913 103.495C164.481 104.805 165.254 105.949 166.233 106.928C167.211 107.906 168.347 108.679 169.641 109.247C170.951 109.815 172.347 110.099 173.831 110.099C174.683 110.099 175.511 109.997 176.316 109.792C177.121 109.586 177.886 109.302 178.612 108.939V99.2823H185.168V112.679Z" fill="#13131A"/>
<path d="M213.666 116.111H190.399V82.1693H213.666V88.9624H197.192V95.7556H208.341V102.549H197.192V109.318H213.666V116.111Z" fill="#13131A"/>
</svg>
